<svg xmlns="http://www.w3.org/2000/svg" version="1.1" xmlns:xlink="http://www.w3.org/1999/xlink" xmlns:svgjs="http://svgjs.dev/svgjs" width="1500" height="287" viewBox="0 0 1500 287"><g transform="matrix(1,0,0,1,-0.9089303420028045,0.7759322773765405)"><svg viewBox="0 0 396 76" data-background-color="#ffffff" preserveAspectRatio="xMidYMid meet" height="287" width="1500" xmlns="http://www.w3.org/2000/svg" xmlns:xlink="http://www.w3.org/1999/xlink"><g id="tight-bounds" transform="matrix(1,0,0,1,0.23995761028874085,-0.2046550754000691)"><svg viewBox="0 0 395.52 76.40931015080017" height="76.40931015080017" width="395.52"><g><svg viewBox="0 0 395.52 76.40931015080017" height="76.40931015080017" width="395.52"><g transform="matrix(1,0,0,1,0,50.061983954784)"><svg viewBox="0 0 395.52 26.347326196016176" height="26.347326196016176" width="395.52"><g id="textblocktransform"><svg viewBox="0 0 395.52 26.347326196016176" height="26.347326196016176" width="395.52" id="textblock"><g><svg viewBox="0 0 395.52 26.347326196016176" height="26.347326196016176" width="395.52"><g transform="matrix(1,0,0,1,0,0)"><svg width="395.52" viewBox="0.9386081824785107 -36.215541715438945 760.5500705090213 50.663577447548235" height="26.347326196016176" data-palette-color="#ed1703"><path d="M16.636 12.039c0.025 0.426-0.972 0.833-2.993 1.221-2.027 0.388-4.049 0.642-6.065 0.762-2.023 0.121-3.324 0.081-3.904-0.118-0.58-0.199-0.884-0.545-0.914-1.038v0l-1.819-30.536c-0.05-0.832 0.86-1.654 2.728-2.466 1.862-0.806 4.004-1.28 6.426-1.425v0c0.858-0.051 1.506-0.056 1.943-0.016v0c1.141 0.099 1.979 0.764 2.513 1.994v0l5.546 12.543 0.199-0.012-0.699-11.729c-0.05-0.832 0.846-1.653 2.689-2.465 1.849-0.805 3.984-1.279 6.406-1.423v0c2.09-0.125 3.441 0.192 4.054 0.95v0c0.426 0.542 0.653 1.046 0.681 1.512v0l1.856 31.135c0.025 0.426-0.972 0.833-2.993 1.22-2.021 0.388-4.249 0.654-6.684 0.799-2.442 0.146-3.799-0.091-4.07-0.709v0l-5.35-11.953-0.25 0.015zM53.141 0.133l-1.637 0.088c0.116 2.157 1.203 3.18 3.259 3.069v0c1.192-0.064 2.727-0.554 4.608-1.47 1.88-0.916 2.87-1.376 2.97-1.382v0c0.626-0.034 1.505 0.867 2.639 2.702 1.127 1.835 1.715 3.199 1.763 4.091v0c0.07 1.298-1.202 2.348-3.816 3.15-2.62 0.809-5.199 1.282-7.735 1.418-2.536 0.137-4.671 0.051-6.403-0.256-1.726-0.308-3.144-0.739-4.256-1.293-1.111-0.554-2.097-1.259-2.958-2.114-0.86-0.848-1.512-1.668-1.955-2.458-0.443-0.791-0.808-1.679-1.095-2.665v0c-0.405-1.44-0.649-2.939-0.733-4.497v0c-0.325-6.038 1.025-10.287 4.05-12.746v0c1.495-1.242 3.192-2.148 5.091-2.718 1.899-0.563 4.157-0.915 6.773-1.056v0c8.394-0.452 12.749 2.237 13.063 8.069v0c0.334 6.204-4.208 9.56-13.628 10.068zM51.013-7.033v0l0.177 3.285c0.959-0.052 1.724-0.477 2.294-1.275 0.571-0.799 0.827-1.744 0.769-2.836v0c-0.107-1.99-0.673-2.958-1.699-2.903v0c-1.158 0.062-1.672 1.305-1.541 3.729zM108.482 7.5v0c-0.395 0.82-2.624 1.325-6.686 1.516-4.069 0.192-6.205-0.108-6.41-0.9v0l-2.114-8.97-0.699 0.033-1.162 9.125c-0.062 0.804-2.947 1.34-8.654 1.609v0c-1.592 0.075-2.648 0.035-3.169-0.121-0.528-0.162-0.899-0.455-1.113-0.879v0c-6.887-14.866-10.349-22.698-10.387-23.497-0.037-0.792 1.126-1.671 3.49-2.637 2.364-0.959 4.658-1.491 6.882-1.596v0c2.857-0.135 4.368 0.562 4.534 2.089v0l2.34 13.555 0.599-0.028 0.072-11.026c-0.006-0.834 0.809-1.606 2.443-2.317 1.629-0.704 3.289-1.096 4.981-1.176 1.691-0.08 2.97 0.067 3.835 0.44 0.865 0.373 1.329 0.858 1.39 1.456v0l1.114 11.971 0.54-0.025 1.045-12.874c0.063-0.797 1.147-1.569 3.255-2.316 2.107-0.753 3.976-1.168 5.607-1.245 1.625-0.077 2.911 0.096 3.859 0.519v0c1.559 0.661 2.363 1.487 2.409 2.48v0c0.005 0.1-1.303 4.219-3.923 12.358-2.627 8.139-3.986 12.291-4.078 12.456zM153.203 5.419c0.016 0.426-0.983 0.812-2.998 1.157-2.015 0.344-4.025 0.555-6.03 0.632-2.005 0.077-3.312 0.021-3.92-0.17-0.608-0.197-0.922-0.558-0.942-1.084v0l-0.333-8.664c-7.086-13.191-10.651-20.366-10.696-21.525v0c-0.027-0.699 1.057-1.475 3.253-2.326 2.189-0.845 4.513-1.314 6.971-1.409v0c3.151-0.121 4.862 0.744 5.134 2.594v0l1.864 13.338 0.549-0.021 0.438-13.076c0.031-0.935 1.181-1.737 3.45-2.405 2.269-0.668 4.433-1.041 6.492-1.12 2.052-0.079 3.489 0.163 4.311 0.725 0.822 0.569 1.247 1.186 1.272 1.852v0c0.024 0.626-3.026 8.239-9.149 22.839v0zM179.796-5.34l-1.64 0.054c0.072 2.159 1.137 3.204 3.196 3.136v0c1.193-0.04 2.738-0.498 4.637-1.375 1.899-0.877 2.898-1.317 2.998-1.32v0c0.626-0.021 1.487 0.898 2.583 2.756 1.089 1.858 1.648 3.234 1.677 4.127v0c0.043 1.299-1.25 2.323-3.88 3.07-2.636 0.754-5.224 1.174-7.763 1.258-2.539 0.084-4.671-0.045-6.396-0.388-1.719-0.343-3.128-0.803-4.228-1.381-1.1-0.577-2.071-1.302-2.914-2.174-0.842-0.866-1.477-1.699-1.903-2.499-0.427-0.8-0.773-1.695-1.04-2.687v0c-0.375-1.448-0.588-2.952-0.64-4.511v0c-0.2-6.043 1.237-10.263 4.313-12.66v0c1.521-1.211 3.236-2.082 5.146-2.612 1.91-0.524 4.175-0.829 6.794-0.915v0c8.402-0.279 12.7 2.501 12.893 8.337v0c0.206 6.21-4.405 9.471-13.833 9.784zM177.816-12.549v0l0.109 3.288c0.959-0.032 1.733-0.441 2.32-1.227 0.588-0.787 0.863-1.726 0.827-2.819v0c-0.066-1.992-0.612-2.971-1.638-2.937v0c-1.159 0.038-1.699 1.27-1.618 3.695zM206.698 5.549v0c-3.019 0.084-5.411-0.563-7.177-1.94v0c-0.716-0.58-1.347-1.443-1.893-2.588-0.552-1.152-0.85-2.507-0.894-4.067-0.044-1.559 0.295-2.929 1.016-4.11 0.714-1.187 1.592-2.112 2.633-2.774 1.042-0.656 2.274-1.204 3.696-1.644v0c2.143-0.627 4.508-0.976 7.093-1.048v0l1.65-0.046c-0.038-1.359-0.531-2.309-1.48-2.85v0c-0.406-0.215-1.016-0.312-1.829-0.289-0.813 0.023-1.787 0.263-2.921 0.721-1.134 0.465-2.075 0.932-2.822 1.4-0.754 0.475-1.264 0.716-1.531 0.723v0c-0.593 0.017-1.428-0.75-2.505-2.301-1.07-1.551-1.624-2.973-1.659-4.266v0c-0.012-0.433 0.585-1.013 1.792-1.74 1.207-0.734 2.925-1.422 5.154-2.065 2.223-0.642 4.397-0.993 6.523-1.052 2.126-0.059 3.963 0.063 5.513 0.366 1.556 0.303 2.83 0.691 3.824 1.164 0.994 0.472 1.842 1.112 2.544 1.92 0.703 0.814 1.24 1.546 1.612 2.195 0.365 0.657 0.646 1.513 0.842 2.568v0c0.268 1.226 0.426 2.736 0.477 4.528v0l0.418 14.985c0.01 0.367-0.871 0.685-2.645 0.954-1.767 0.263-3.523 0.418-5.269 0.467-1.746 0.049-2.877 0.03-3.393-0.056-0.516-0.086-0.826-0.194-0.929-0.324-0.104-0.13-0.193-0.361-0.269-0.692v0l-0.48-2.828-0.399 0.011c-0.743 3.015-2.974 4.575-6.692 4.678zM213.144-2.904v0l-0.162-5.827c-0.866 0.024-1.556 0.41-2.069 1.158-0.506 0.741-0.746 1.578-0.72 2.511v0c0.061 2.186 0.588 3.265 1.581 3.237v0c0.433-0.012 0.77-0.128 1.01-0.348 0.247-0.22 0.367-0.464 0.36-0.731zM243.311-11.582v0l0.331 14.537c0.008 0.367-0.925 0.681-2.8 0.944-1.868 0.256-3.808 0.407-5.821 0.452-2.006 0.046-3.311-0.015-3.915-0.181-0.604-0.173-0.911-0.476-0.921-0.909v0l-0.559-24.554c-0.014-0.626 0.893-1.327 2.723-2.102 1.823-0.775 3.824-1.187 6.003-1.237 2.173-0.049 3.406 0.523 3.7 1.716v0l0.552 2.278 0.35-0.008c0.431-1.27 1.517-2.365 3.256-3.285 1.74-0.92 3.489-1.4 5.249-1.44 1.76-0.04 3.006 0.212 3.738 0.756 0.726 0.55 1.099 1.265 1.119 2.145 0.02 0.88-0.021 2.001-0.123 3.363-0.102 1.369-0.392 2.856-0.869 4.461-0.484 1.605-1.139 2.417-1.965 2.436v0c-0.333 0.008-1.385-0.219-3.156-0.679-1.771-0.46-3.23-0.677-4.376-0.65-1.146 0.026-1.856 0.209-2.128 0.548-0.272 0.34-0.402 0.809-0.388 1.409zM290.692-18.532v0l13.399-0.206c1.493-0.023 2.259 1.229 2.298 3.755v0c0.018 1.193-0.105 2.282-0.37 3.266-0.265 0.984-0.564 1.479-0.897 1.484v0l-2.49 0.038 0.022 1.44c0.067 4.353-0.046 6.748-0.34 7.186v0c-2.307 3.456-8.077 5.255-17.309 5.397v0c-4.579 0.07-8.196-0.737-10.848-2.423-2.653-1.686-4.007-4.356-4.064-8.009v0c-0.046-2.96 0.881-5.368 2.78-7.223v0c0.427-0.433 0.937-0.838 1.531-1.214v0c-0.101-0.065-0.242-0.146-0.424-0.244-0.188-0.097-0.519-0.359-0.992-0.784-0.467-0.426-0.887-0.9-1.262-1.421v0c-0.921-1.386-1.397-3.059-1.427-5.019v0c-0.095-6.206 4.64-9.382 14.205-9.529v0c2.693-0.041 5.006 0.113 6.938 0.463 1.932 0.35 3.309 0.786 4.13 1.307 0.821 0.521 1.237 1.064 1.246 1.631v0c0.014 0.927-0.278 2.508-0.878 4.744-0.599 2.236-1.278 3.36-2.038 3.371v0c-0.167 0.003-1.134-0.249-2.902-0.755-1.768-0.506-3.375-0.748-4.822-0.726-1.446 0.022-2.162 0.533-2.146 1.533v0c0.013 0.86 0.655 1.397 1.925 1.611v0c1.297 0.247 2.876 0.356 4.735 0.327zM289.675-6.655v0l0.041-0.551-0.042-2.739c-3.652 0.123-5.467 0.864-5.446 2.224v0c0.015 0.993 0.919 1.476 2.712 1.448v0c0.833-0.013 1.745-0.14 2.735-0.382zM345.462 2.337c-1.324 0.324-2.676 0.548-4.055 0.672-1.379 0.131-2.722 0.201-4.029 0.211-1.313 0.01-2.327-0.015-3.041-0.076-0.714-0.061-1.655-0.22-2.823-0.478-1.162-0.258-2.228-0.616-3.199-1.075-0.964-0.453-1.989-1.125-3.076-2.016-1.087-0.885-1.999-1.941-2.734-3.169v0c-1.722-2.84-2.601-6.52-2.636-11.04v0c-0.024-3.02 0.429-5.697 1.357-8.031 0.929-2.327 2.061-4.13 3.398-5.406 1.337-1.27 2.866-2.296 4.586-3.076v0c2.783-1.282 5.585-1.934 8.405-1.956v0c4.053-0.032 6.962 0.279 8.728 0.932v0c0.796 0.287 1.513 0.745 2.15 1.373 0.638 0.628 0.962 1.539 0.972 2.733 0.009 1.193-0.269 2.706-0.835 4.537-0.572 1.831-1.405 2.751-2.499 2.759v0c-0.333 0.003-1.565-0.251-3.696-0.761-2.131-0.517-3.576-0.772-4.336-0.766v0c-1.167 0.009-2.152 0.663-2.954 1.963-0.803 1.306-1.195 3.153-1.177 5.539 0.019 2.393 0.39 4.25 1.113 5.572 0.73 1.328 1.676 1.987 2.836 1.978v0c0.833-0.006 2.334-0.362 4.501-1.066 2.168-0.697 3.435-1.047 3.802-1.049v0c1.027-0.008 1.841 0.932 2.442 2.821 0.595 1.889 0.897 3.416 0.906 4.583 0.009 1.16-0.34 2.083-1.048 2.768-0.708 0.686-1.727 1.193-3.058 1.524zM369.056 1.427v0l-0.034-13.85c-0.006-2.487-0.111-4.296-0.313-5.43-0.203-1.126-0.688-1.688-1.455-1.686v0c-0.66 0.002-0.989 0.452-0.986 1.352v0l0.048 19.62c0.001 0.367-0.962 0.662-2.888 0.887-1.926 0.218-3.903 0.33-5.929 0.335-2.027 0.005-3.307-0.082-3.841-0.26-0.534-0.185-0.801-0.495-0.802-0.928v0l-0.085-34.52c-0.002-0.7 0.96-1.399 2.885-2.097 1.925-0.705 3.951-1.06 6.077-1.065v0c2.227-0.005 3.641 0.408 4.243 1.239v0c0.194 0.26 0.291 0.539 0.292 0.839v0l0.018 7.33-0.531 3.432 0.35-0.001c0.458-0.694 1.187-1.31 2.185-1.846v0c1.858-0.998 3.883-1.5 6.077-1.505v0c3.153-0.008 5.289 0.99 6.407 2.995 1.118 2.004 1.683 5.266 1.694 9.785v0l0.038 15.34c0.001 0.367-0.972 0.662-2.918 0.888-1.939 0.218-3.916 0.33-5.929 0.334-2.007 0.005-3.277-0.082-3.811-0.26-0.527-0.185-0.791-0.495-0.792-0.928zM399.417-13.1v0l-0.039 14.54c-0.001 0.367-0.942 0.657-2.823 0.872-1.874 0.208-3.818 0.31-5.831 0.304-2.007-0.005-3.31-0.099-3.909-0.28-0.599-0.188-0.899-0.499-0.897-0.933v0l0.066-24.56c0.002-0.627 0.927-1.304 2.775-2.032 1.842-0.728 3.853-1.09 6.033-1.084 2.173 0.006 3.392 0.609 3.656 1.81v0l0.493 2.291 0.35 0.001c0.463-1.259 1.576-2.326 3.339-3.201 1.762-0.875 3.524-1.31 5.284-1.306 1.76 0.005 2.999 0.288 3.717 0.85 0.712 0.569 1.067 1.293 1.064 2.173-0.002 0.88-0.072 2-0.209 3.36-0.137 1.366-0.464 2.845-0.982 4.437-0.524 1.592-1.2 2.387-2.026 2.385v0c-0.333-0.001-1.379-0.254-3.138-0.759-1.759-0.505-3.211-0.759-4.358-0.762-1.147-0.003-1.86 0.162-2.141 0.495-0.281 0.333-0.422 0.799-0.424 1.399zM428.92-22.977v0l-0.158 24.559c-0.002 0.367-0.958 0.654-2.865 0.862-1.915 0.201-3.875 0.295-5.882 0.282-2.007-0.013-3.303-0.111-3.888-0.295-0.579-0.19-0.867-0.502-0.864-0.936v0l0.151-23.659c0.005-0.733 0.949-1.451 2.834-2.152 1.878-0.701 3.93-1.045 6.157-1.03v0c3.02 0.019 4.525 0.809 4.515 2.369zM422.234-36.121v0c2.193 0.014 3.908 0.348 5.144 1.003 1.242 0.655 1.858 1.829 1.847 3.522v0c-0.019 2.993-2.352 4.475-6.998 4.446-4.653-0.03-6.97-1.541-6.951-4.535 0.019-2.987 2.339-4.465 6.958-4.436zM445.978 3.408v0c-5.513-0.057-9.541-0.633-12.082-1.725v0c-1.287-0.573-1.928-1.127-1.923-1.66v0c0.014-1.36 0.427-2.949 1.24-4.768 0.819-1.818 1.525-2.724 2.118-2.718v0c0.333 0.003 1.453 0.378 3.358 1.125 1.899 0.753 3.505 1.137 4.819 1.15 1.313 0.014 2.177-0.061 2.592-0.223 0.415-0.162 0.625-0.484 0.63-0.963 0.005-0.48-0.321-0.867-0.978-1.161-0.664-0.287-1.495-0.486-2.494-0.596-0.992-0.11-2.06-0.321-3.203-0.633-1.143-0.312-2.209-0.703-3.198-1.173-0.995-0.477-1.817-1.259-2.466-2.346-0.655-1.087-0.977-2.254-0.964-3.5 0.013-1.247 0.056-2.176 0.129-2.789 0.073-0.613 0.355-1.473 0.847-2.581 0.492-1.108 1.184-2.004 2.078-2.689 0.887-0.691 2.254-1.31 4.1-1.857 1.852-0.541 3.922-0.799 6.208-0.776 2.293 0.024 4.212 0.117 5.758 0.28 1.538 0.163 2.746 0.365 3.624 0.608 0.878 0.242 1.598 0.517 2.161 0.822v0c0.961 0.51 1.439 1.062 1.433 1.655v0c-0.014 1.3-0.496 2.792-1.447 4.476-0.944 1.684-1.693 2.523-2.246 2.516-0.547-0.006-1.73-0.308-3.551-0.907-1.821-0.599-3.161-0.903-4.02-0.912v0c-1.4-0.015-2.104 0.375-2.113 1.169v0c-0.005 0.5 0.464 0.878 1.409 1.134 0.944 0.263 2.081 0.532 3.411 0.806 1.324 0.28 2.656 0.671 3.998 1.171 1.335 0.494 2.469 1.376 3.403 2.646 0.934 1.27 1.39 2.868 1.37 4.795v0c-0.068 6.513-4.735 9.721-14.001 9.624zM482.391 2.989c-0.602 0.558-1.966 0.821-4.092 0.789-2.126-0.032-3.884-0.198-5.273-0.498-1.396-0.307-2.717-0.884-3.965-1.73v0c-2.402-1.669-3.565-5.077-3.488-10.223v0l0.116-7.769-2.49-0.037c-0.36-0.005-0.668-0.39-0.923-1.154-0.255-0.771-0.373-1.819-0.353-3.145 0.02-1.333 0.244-2.503 0.673-3.511 0.428-1.007 0.976-1.506 1.642-1.496v0l1.59 0.024 0.09-6.019c0.015-1.033 1.034-1.848 3.057-2.445 2.016-0.603 3.987-0.891 5.913-0.862v0c3.026 0.045 4.528 0.814 4.506 2.308v0l-0.107 7.219 3.679 0.055c0.867 0.013 1.281 1.266 1.244 3.759v0c-0.024 1.626-0.237 2.96-0.639 4-0.396 1.041-0.89 1.557-1.484 1.549v0l-2.939-0.044-0.136 9.119c-0.013 0.893 0.357 1.539 1.111 1.937 0.761 0.391 1.431 0.591 2.011 0.6 0.58 0.009 0.932 0.297 1.057 0.865 0.125 0.562 0.179 1.409 0.163 2.543v0c-0.033 2.22-0.354 3.608-0.963 4.166zM532.454-11.979v0l-0.316 15.236c-0.008 0.367-0.953 0.64-2.837 0.822-1.877 0.174-3.819 0.241-5.826 0.199-2.013-0.042-3.317-0.159-3.913-0.351-0.589-0.199-0.88-0.515-0.871-0.948v0l0.286-13.797c0.098-4.746-0.336-7.128-1.302-7.149v0c-0.233-0.005-0.465 0.09-0.696 0.286-0.237 0.195-0.361 0.543-0.372 1.042v0l-0.405 19.566c-0.008 0.367-0.953 0.64-2.838 0.822-1.877 0.174-3.829 0.241-5.855 0.198-2.026-0.042-3.327-0.159-3.904-0.35-0.576-0.199-0.86-0.515-0.85-0.948v0l0.285-13.797c0.076-3.686-0.111-5.897-0.562-6.633v0c-0.226-0.338-0.523-0.511-0.89-0.519v0c-0.627-0.013-0.949 0.43-0.968 1.33v0l-0.405 19.566c-0.008 0.367-0.96 0.64-2.857 0.821-1.897 0.174-3.852 0.24-5.866 0.199-2.006-0.042-3.297-0.158-3.873-0.35-0.583-0.199-0.87-0.515-0.861-0.949v0l0.509-24.554c0.014-0.693 0.985-1.37 2.912-2.03 1.921-0.66 3.944-0.969 6.071-0.925 2.126 0.044 3.31 0.685 3.551 1.924v0l0.404 2.199 0.35 0.007c0.999-1.873 2.62-3.186 4.863-3.94v0c0.933-0.274 2.132-0.396 3.598-0.366v0c2.919 0.06 5.011 1.597 6.276 4.611v0c0.454-0.984 1.554-1.958 3.301-2.922 1.747-0.957 3.667-1.414 5.76-1.371v0c3.286 0.068 5.481 1.134 6.585 3.197 1.104 2.063 1.609 5.354 1.516 9.874zM544.953 5.262v0c-3.019-0.083-5.372-0.861-7.059-2.335v0c-0.683-0.619-1.266-1.515-1.747-2.688-0.488-1.18-0.71-2.55-0.668-4.11 0.043-1.559 0.457-2.909 1.242-4.048 0.778-1.146 1.706-2.021 2.783-2.624 1.077-0.597 2.337-1.076 3.78-1.437v0c2.175-0.507 4.555-0.725 7.141-0.655v0l1.649 0.045c0.037-1.359-0.403-2.335-1.32-2.927v0c-0.394-0.238-0.997-0.367-1.81-0.39-0.813-0.022-1.799 0.164-2.956 0.559-1.158 0.402-2.123 0.815-2.895 1.242-0.779 0.432-1.301 0.645-1.568 0.637v0c-0.593-0.016-1.384-0.828-2.375-2.436-0.983-1.608-1.457-3.058-1.421-4.351v0c0.012-0.433 0.64-0.979 1.886-1.639 1.245-0.666 2.999-1.258 5.26-1.776 2.255-0.518 4.446-0.748 6.572-0.69 2.126 0.058 3.954 0.282 5.484 0.67 1.537 0.389 2.788 0.847 3.753 1.374 0.966 0.527 1.777 1.212 2.435 2.057 0.657 0.852 1.153 1.612 1.488 2.282 0.328 0.676 0.561 1.546 0.699 2.61v0c0.199 1.239 0.275 2.755 0.225 4.548v0l-0.411 14.984c-0.01 0.367-0.908 0.635-2.693 0.807-1.779 0.165-3.541 0.223-5.287 0.175-1.746-0.048-2.874-0.129-3.384-0.243-0.51-0.114-0.814-0.239-0.91-0.375-0.096-0.136-0.173-0.372-0.231-0.707v0l-0.322-2.85-0.4-0.011c-0.908 2.97-3.222 4.403-6.94 4.302zM551.857-2.822v0l0.159-5.828c-0.866-0.024-1.576 0.324-2.129 1.042-0.546 0.712-0.832 1.534-0.858 2.468v0c-0.06 2.186 0.407 3.292 1.4 3.319v0c0.433 0.012 0.776-0.085 1.028-0.292 0.259-0.206 0.392-0.443 0.4-0.709zM582.018 6.367v0c-5.51-0.18-9.524-0.845-12.041-1.994v0c-1.274-0.602-1.903-1.169-1.886-1.703v0c0.044-1.359 0.493-2.939 1.346-4.739 0.859-1.8 1.585-2.69 2.178-2.67v0c0.333 0.011 1.444 0.411 3.333 1.2 1.882 0.795 3.479 1.214 4.791 1.257 1.313 0.043 2.178-0.012 2.597-0.166 0.419-0.153 0.636-0.469 0.651-0.949 0.016-0.48-0.302-0.874-0.952-1.182-0.657-0.302-1.484-0.519-2.48-0.651-0.99-0.132-2.052-0.367-3.188-0.704-1.136-0.337-2.193-0.752-3.171-1.245-0.984-0.499-1.789-1.299-2.413-2.4-0.631-1.101-0.926-2.275-0.886-3.52 0.041-1.246 0.104-2.174 0.191-2.786 0.087-0.611 0.388-1.465 0.904-2.561 0.516-1.097 1.229-1.978 2.138-2.642 0.902-0.671 2.282-1.26 4.14-1.766 1.864-0.499 3.939-0.712 6.224-0.637 2.292 0.075 4.209 0.211 5.749 0.408 1.534 0.197 2.738 0.426 3.61 0.688 0.872 0.262 1.586 0.552 2.143 0.87v0c0.95 0.531 1.415 1.093 1.395 1.687v0c-0.042 1.299-0.558 2.78-1.546 4.442-0.981 1.662-1.749 2.484-2.301 2.466-0.546-0.018-1.723-0.346-3.53-0.986-1.807-0.639-3.14-0.973-3.999-1.001v0c-1.399-0.046-2.112 0.328-2.138 1.121v0c-0.016 0.5 0.445 0.888 1.383 1.166 0.938 0.284 2.069 0.578 3.393 0.881 1.317 0.31 2.641 0.73 3.971 1.26 1.324 0.523 2.438 1.43 3.343 2.721 0.905 1.29 1.326 2.898 1.263 4.824v0c-0.213 6.51-4.95 9.614-14.212 9.311zM621.049 7.727v0c-1.126-0.045-2.164-0.203-3.113-0.473-0.957-0.271-1.943-0.801-2.96-1.589-1.016-0.788-1.863-1.809-2.54-3.063v0c-1.555-2.857-2.221-7.09-1.998-12.699v0c0.122-3.084 0.647-5.789 1.573-8.114 0.926-2.325 2.045-4.115 3.355-5.372 1.311-1.262 2.862-2.275 4.654-3.037 1.791-0.756 3.455-1.231 4.991-1.424 1.542-0.186 3.176-0.244 4.901-0.175v0c3.984 0.158 6.775 0.609 8.373 1.353 1.598 0.744 2.359 2.079 2.283 4.003v0c-0.061 1.525-0.409 3.166-1.046 4.923-0.637 1.749-1.501 2.603-2.594 2.559v0c-0.266-0.011-1.385-0.312-3.357-0.904-1.971-0.592-3.453-0.908-4.446-0.947v0c-2.858-0.113-4.382 2.235-4.573 7.044v0c-0.096 2.425 0.165 4.24 0.785 5.446 0.619 1.206 1.423 1.895 2.41 2.067v0l0.178-4.487c0.033-0.826 0.909-1.555 2.629-2.187 1.719-0.626 3.359-0.908 4.917-0.846 1.565 0.062 2.701 0.204 3.406 0.425 0.705 0.228 1.183 0.531 1.435 0.908v0c0.436 0.618 0.645 1.16 0.626 1.626v0l-0.547 13.789c-0.017 0.426-0.9 0.738-2.649 0.936-1.756 0.197-3.57 0.259-5.442 0.184-1.879-0.075-3.061-0.212-3.546-0.41-0.492-0.206-0.755-0.724-0.789-1.553v0l-0.233-2.952-0.4-0.015c-0.29 1.416-0.928 2.619-1.915 3.607-0.987 0.995-2.443 1.454-4.368 1.377zM657.643-6.887v0l-0.652 14.526c-0.016 0.366-0.969 0.617-2.857 0.753-1.881 0.129-3.827 0.149-5.838 0.058-2.005-0.09-3.303-0.238-3.894-0.445-0.591-0.213-0.877-0.536-0.857-0.969v0l1.1-24.536c0.028-0.626 0.981-1.264 2.859-1.913 1.871-0.65 3.895-0.926 6.073-0.829 2.171 0.097 3.363 0.751 3.575 1.962v0l0.397 2.31 0.35 0.016c0.516-1.238 1.673-2.257 3.471-3.058 1.798-0.8 3.576-1.161 5.333-1.082 1.758 0.079 2.984 0.414 3.679 1.006 0.687 0.598 1.011 1.337 0.972 2.216-0.039 0.879-0.156 1.995-0.351 3.347-0.194 1.359-0.584 2.823-1.168 4.392-0.591 1.568-1.299 2.334-2.125 2.298v0c-0.333-0.015-1.367-0.312-3.103-0.89-1.736-0.578-3.176-0.893-4.322-0.945-1.146-0.051-1.866 0.083-2.16 0.404-0.295 0.32-0.455 0.78-0.482 1.379zM682.019 10.475v0c-3.016-0.15-5.351-0.981-7.005-2.492v0c-0.669-0.634-1.231-1.543-1.686-2.727-0.461-1.191-0.653-2.566-0.575-4.124 0.078-1.558 0.522-2.898 1.331-4.019 0.804-1.128 1.751-1.982 2.842-2.562 1.09-0.573 2.361-1.024 3.812-1.351v0c2.186-0.458 4.57-0.623 7.153-0.495v0l1.648 0.083c0.068-1.358-0.35-2.344-1.254-2.957v0c-0.388-0.246-0.988-0.39-1.801-0.43-0.812-0.041-1.802 0.124-2.968 0.493-1.167 0.376-2.141 0.768-2.922 1.176-0.788 0.415-1.316 0.615-1.582 0.602v0c-0.593-0.03-1.366-0.859-2.319-2.489-0.947-1.629-1.388-3.09-1.324-4.381v0c0.022-0.433 0.662-0.965 1.922-1.596 1.26-0.638 3.026-1.191 5.299-1.659 2.266-0.468 4.461-0.649 6.586-0.542 2.124 0.106 3.946 0.37 5.467 0.793 1.527 0.423 2.768 0.909 3.722 1.457 0.954 0.548 1.75 1.252 2.388 2.112 0.638 0.866 1.116 1.638 1.436 2.314 0.313 0.683 0.526 1.558 0.64 2.626v0c0.172 1.243 0.213 2.761 0.124 4.551v0l-0.747 14.972c-0.018 0.366-0.922 0.615-2.711 0.746-1.782 0.125-3.545 0.144-5.289 0.056-1.744-0.087-2.871-0.193-3.378-0.318-0.508-0.125-0.808-0.257-0.902-0.396-0.093-0.138-0.165-0.375-0.215-0.711v0l-0.258-2.857-0.399-0.02c-0.975 2.948-3.32 4.33-7.035 4.145zM689.102 2.548v0l0.291-5.823c-0.866-0.043-1.583 0.288-2.152 0.994-0.562 0.7-0.867 1.515-0.914 2.448v0c-0.109 2.184 0.333 3.301 1.325 3.35v0c0.433 0.022 0.778-0.068 1.035-0.269 0.264-0.2 0.402-0.434 0.415-0.7zM736.46-3.64v0l-0.847 15.317c-0.02 0.366-0.982 0.607-2.884 0.722-1.902 0.108-3.858 0.107-5.869-0.004-2.004-0.111-3.29-0.272-3.859-0.484-0.575-0.219-0.851-0.544-0.827-0.977v0l0.875-15.816c0.082-1.491 0.08-2.473-0.008-2.945-0.094-0.473-0.178-0.891-0.251-1.256v0c-0.198-0.645-0.597-0.984-1.195-1.018v0c-0.925-0.051-1.413 0.373-1.463 1.272v0l-1.083 19.59c-0.02 0.366-0.975 0.607-2.865 0.723-1.882 0.11-3.829 0.109-5.838-0.003-2.004-0.111-3.3-0.273-3.889-0.485-0.589-0.22-0.871-0.546-0.848-0.979v0l1.356-24.522c0.038-0.692 1.032-1.335 2.981-1.928 1.942-0.594 3.975-0.832 6.099-0.715 2.123 0.117 3.284 0.799 3.483 2.046v0l0.328 2.211 0.349 0.02c1.065-1.871 2.797-3.124 5.196-3.759v0c0.975-0.24 2.045-0.328 3.209-0.264v0c3.348 0.185 5.556 1.312 6.624 3.381 1.067 2.069 1.476 5.36 1.226 9.873zM758.521 13.807c-0.626 0.53-2.001 0.731-4.123 0.604-2.123-0.128-3.871-0.373-5.245-0.736-1.38-0.37-2.674-1.006-3.883-1.907v0c-2.324-1.776-3.332-5.233-3.023-10.37v0l0.467-7.756-2.486-0.15c-0.359-0.022-0.649-0.42-0.87-1.194-0.22-0.781-0.29-1.834-0.21-3.158 0.08-1.331 0.357-2.49 0.83-3.477 0.473-0.987 1.043-1.46 1.708-1.42v0l1.587 0.096 0.362-6.01c0.062-1.031 1.117-1.8 3.164-2.304 2.041-0.512 4.023-0.71 5.946-0.594v0c3.021 0.182 4.487 1.018 4.398 2.509v0l-0.434 7.207 3.673 0.221c0.865 0.052 1.223 1.322 1.074 3.811v0c-0.098 1.624-0.371 2.946-0.82 3.968-0.442 1.022-0.959 1.515-1.552 1.48v0l-2.935-0.177-0.547 9.104c-0.054 0.892 0.287 1.553 1.023 1.985 0.742 0.425 1.403 0.655 1.982 0.69 0.579 0.035 0.918 0.339 1.017 0.913 0.099 0.567 0.115 1.416 0.047 2.547v0c-0.133 2.216-0.516 3.589-1.15 4.118z" opacity="1" transform="matrix(1,0,0,1,0,0)" fill="#ed1703" class="wordmark-text-0" data-fill-palette-color="primary" id="text-0"></path></svg></g></svg></g></svg></g></svg></g><g transform="matrix(1,0,0,1,181.3648840789919,0)"><svg viewBox="0 0 32.79023184201615 42.629973785154164" height="42.629973785154164" width="32.79023184201615"><g><svg xmlns="http://www.w3.org/2000/svg" data-name="Layer 2" viewBox="17.28 9.74 61.349999999999994 79.76" x="0" y="0" height="42.629973785154164" width="32.79023184201615" class="icon-icon-0" data-fill-palette-color="accent" id="icon-0"><path d="M64.63 17.24h5.29L66.17 21a0.5 0.5 0 1 0 0.71 0.71l3.74-3.74v5.29a0.5 0.5 0 0 0 1 0V17.94l3.74 3.74A0.5 0.5 0 0 0 76.08 21l-3.74-3.74h5.29a0.5 0.5 0 0 0 0-1H72.33l3.74-3.74a0.5 0.5 0 0 0-0.71-0.71l-3.74 3.74V10.24a0.5 0.5 0 0 0-1 0v5.29l-3.74-3.74a0.5 0.5 0 0 0-0.71 0.71l3.74 3.74H64.63A0.5 0.5 0 0 0 64.63 17.24Z" fill="#ff908b" data-fill-palette-color="accent"></path><path d="M21.88 40.77a0.5 0.5 0 0 0 1 0V37.38l2.4 2.4A0.5 0.5 0 1 0 26 39.07l-2.4-2.4H27a0.5 0.5 0 1 0 0-1H23.58l2.4-2.4a0.5 0.5 0 1 0-0.71-0.71L22.88 35V31.58a0.5 0.5 0 0 0-1 0V35l-2.4-2.4a0.5 0.5 0 0 0-0.71 0.71l2.4 2.4H17.78a0.5 0.5 0 1 0 0 1h3.39l-2.4 2.4a0.5 0.5 0 1 0 0.71 0.71l2.4-2.4v3.39Z" fill="#ff908b" data-fill-palette-color="accent"></path><path d="M56.23 48.42a2.34 2.34 0 0 0 0.5-4.63V42.35a0.5 0.5 0 0 0-1 0v1.44A2.34 2.34 0 0 0 56.23 48.42Zm0-3.69a1.34 1.34 0 1 1-1.35 1.35A1.35 1.35 0 0 1 56.23 44.73Z" fill="#ff908b" data-fill-palette-color="accent"></path><path d="M48.63 41.24A2.35 2.35 0 0 0 46.78 39V37.51a0.5 0.5 0 0 0-1 0V39A2.34 2.34 0 1 0 48.63 41.24Zm-3.69 0a1.34 1.34 0 1 1 1.34 1.34A1.35 1.35 0 0 1 44.94 41.24Z" fill="#ff908b" data-fill-palette-color="accent"></path><path d="M51.52 33.52a2.34 2.34 0 0 0 0.5-4.63V27.45a0.5 0.5 0 0 0-1 0v1.44A2.34 2.34 0 0 0 51.52 33.52Zm0-3.69a1.34 1.34 0 1 1-1.34 1.35A1.35 1.35 0 0 1 51.52 29.83Z" fill="#ff908b" data-fill-palette-color="accent"></path><path d="M38.92 60.45V59a0.5 0.5 0 0 0-1 0v1.44A2.34 2.34 0 1 0 38.92 60.45Zm-0.5 3.63a1.34 1.34 0 1 1 1.34-1.35A1.35 1.35 0 0 1 38.42 64.09Z" fill="#ff908b" data-fill-palette-color="accent"></path><path d="M47.83 57a2.34 2.34 0 0 0 0.5-4.63V50.92a0.5 0.5 0 1 0-1 0v1.44A2.34 2.34 0 0 0 47.83 57Zm0-3.69a1.34 1.34 0 1 1-1.34 1.34A1.35 1.35 0 0 1 47.83 53.3Z" fill="#ff908b" data-fill-palette-color="accent"></path><path d="M57.28 60.55a2.35 2.35 0 1 0 2.84-2.29V56.82a0.5 0.5 0 0 0-1 0v1.44A2.35 2.35 0 0 0 57.28 60.55Zm3.69 0a1.35 1.35 0 1 1-1.35-1.35A1.35 1.35 0 0 1 61 60.55Z" fill="#ff908b" data-fill-palette-color="accent"></path><path d="M77.63 87.5H55.37V70.25H75a1 1 0 0 0 0.81-1.59L64.37 52.91h5.11a1 1 0 0 0 0.81-1.59L58.67 35.27h5a1 1 0 0 0 0.81-1.59L50.81 14.86a1 1 0 0 0-1.62 0L35.56 33.68a1 1 0 0 0 0.81 1.59h5L29.71 51.33a1 1 0 0 0 0.81 1.59h5.11L24.22 68.67A1 1 0 0 0 25 70.25h19.6V87.5H22.38a1 1 0 0 0 0 2H77.63A1 1 0 0 0 77.63 87.5ZM38.4 52.5a1 1 0 0 0-0.81-1.59H32.47L44.1 34.86a1 1 0 0 0-0.81-1.59h-5L50 17.15 61.67 33.27h-5a1 1 0 0 0-0.81 1.59L67.53 50.91H62.41a1 1 0 0 0-0.81 1.59L73 68.25H27Zm8.23 35V70.25h6.74V87.5H46.63Z" fill="#ff908b" data-fill-palette-color="accent"></path></svg></g></svg></g><g></g></svg></g><defs></defs></svg><rect width="395.52" height="76.40931015080017" fill="none" stroke="none" visibility="hidden"></rect></g></svg></g></svg>